<mxfile host="app.diagrams.net" modified="2024-04-07T16:26:38.929Z" agent="Mozilla/5.0 (Windows NT 10.0; Win64; x64) AppleWebKit/537.36 (KHTML, like Gecko) Chrome/123.0.0.0 Safari/537.36" etag="RxRu2-A2LQkcEaNa8zum" version="24.2.1" type="device">
  <diagram name="Page-1" id="0lWVzNVyUUuE8bUNbhqY">
    <mxGraphModel dx="550" dy="472" grid="1" gridSize="10" guides="1" tooltips="1" connect="1" arrows="1" fold="1" page="1" pageScale="1" pageWidth="827" pageHeight="1169" math="0" shadow="0">
      <root>
        <mxCell id="0" />
        <mxCell id="1" parent="0" />
        <mxCell id="il8xNccvzD3lIz1HY5Tm-3" value="" style="edgeStyle=orthogonalEdgeStyle;rounded=0;orthogonalLoop=1;jettySize=auto;html=1;" edge="1" parent="1" source="il8xNccvzD3lIz1HY5Tm-1" target="il8xNccvzD3lIz1HY5Tm-2">
          <mxGeometry relative="1" as="geometry" />
        </mxCell>
        <mxCell id="il8xNccvzD3lIz1HY5Tm-1" value="Home Page&amp;nbsp;" style="rounded=0;whiteSpace=wrap;html=1;" vertex="1" parent="1">
          <mxGeometry x="40" y="50" width="160" height="270" as="geometry" />
        </mxCell>
        <mxCell id="il8xNccvzD3lIz1HY5Tm-5" value="" style="edgeStyle=orthogonalEdgeStyle;rounded=0;orthogonalLoop=1;jettySize=auto;html=1;" edge="1" parent="1" source="il8xNccvzD3lIz1HY5Tm-2" target="il8xNccvzD3lIz1HY5Tm-4">
          <mxGeometry relative="1" as="geometry" />
        </mxCell>
        <mxCell id="il8xNccvzD3lIz1HY5Tm-2" value="Home Page&amp;nbsp;" style="rounded=0;whiteSpace=wrap;html=1;" vertex="1" parent="1">
          <mxGeometry x="280" y="50" width="160" height="270" as="geometry" />
        </mxCell>
        <mxCell id="il8xNccvzD3lIz1HY5Tm-4" value="Home Page&amp;nbsp;" style="rounded=0;whiteSpace=wrap;html=1;" vertex="1" parent="1">
          <mxGeometry x="520" y="50" width="160" height="270" as="geometry" />
        </mxCell>
      </root>
    </mxGraphModel>
  </diagram>
</mxfile>
